HIERARCHY
ROOT Hips
{
  OFFSET -69.4423 88.0299 51.6846
  CHANNELS 6 Xposition Yposition Zposition Zrotation Xrotation Yrotation
  JOINT Spine
  {
    OFFSET 12.0259 -0.162853 1.93176e-005
    CHANNELS 3 Zrotation Xrotation Yrotation
    JOINT Spine1
    {
      OFFSET 15.3169 -0.0121909 0
      CHANNELS 3 Zrotation Xrotation Yrotation
      JOINT Spine2
      {
        OFFSET 15.3176 -0.0121922 0
        CHANNELS 3 Zrotation Xrotation Yrotation
        JOINT Neck
        {
          OFFSET 19.9142 1.56236 0
          CHANNELS 3 Zrotation Xrotation Yrotation
          JOINT Head
          {
            OFFSET 6.92646 0 0
            CHANNELS 3 Zrotation Xrotation Yrotation
            End Site
            {
              OFFSET 20.7666 0 0
            }
          }
          JOINT LeftShoulder
          {
            OFFSET -4.94072 -1.14703 8.14416
            CHANNELS 3 Zrotation Xrotation Yrotation
            JOINT LeftArm
            {
              OFFSET 14.108 0 -2.74767e-005
              CHANNELS 3 Zrotation Xrotation Yrotation
              JOINT LeftForeArm
              {
                OFFSET 28.5802 -0.0783412 -0.0284884
                CHANNELS 3 Zrotation Xrotation Yrotation
                JOINT LeftHand
                {
                  OFFSET 27.092 0 0
                  CHANNELS 3 Zrotation Xrotation Yrotation
                  End Site
                  {
                    OFFSET 9.55928 -0.186424 0.145352
                  }
                }
              }
            }
          }
          JOINT RightShoulder
          {
            OFFSET -7.15748 -1.33027 -6.24935
            CHANNELS 3 Zrotation Xrotation Yrotation
            JOINT RightArm
            {
              OFFSET 14.108 0 1.82997e-005
              CHANNELS 3 Zrotation Xrotation Yrotation
              JOINT RightForeArm
              {
                OFFSET 28.5802 -0.0707221 2.30684e-005
                CHANNELS 3 Zrotation Xrotation Yrotation
                JOINT RightHand
                {
                  OFFSET 27.092 0 -1.30073e-005
                  CHANNELS 3 Zrotation Xrotation Yrotation
                  End Site
                  {
                    OFFSET 9.55929 -0.186417 -0.145354
                  }
                }
              }
            }
          }
        }
      }
    }
  }
  JOINT LeftUpLeg
  {
    OFFSET 0.00499725 -0.534999 8.837
    CHANNELS 3 Zrotation Xrotation Yrotation
    JOINT LeftLeg
    {
      OFFSET 39.9035 -0.00124594 0.000252775
      CHANNELS 3 Zrotation Xrotation Yrotation
      JOINT LeftFoot
      {
        OFFSET 39.6689 0 0
        CHANNELS 3 Zrotation Xrotation Yrotation
        JOINT LeftToe
        {
          OFFSET 10.1624 13.6296 0
          CHANNELS 3 Zrotation Xrotation Yrotation
          End Site
          {
            OFFSET 8.38147 0 0
          }
        }
      }
    }
  }
  JOINT RightUpLeg
  {
    OFFSET 0.00499725 -0.535 -8.837
    CHANNELS 3 Zrotation Xrotation Yrotation
    JOINT RightLeg
    {
      OFFSET 39.9036 -0.000268477 0.000106433
      CHANNELS 3 Zrotation Xrotation Yrotation
      JOINT RightFoot
      {
        OFFSET 39.6689 1.17892e-005 0
        CHANNELS 3 Zrotation Xrotation Yrotation
        JOINT RightToe
        {
          OFFSET 10.1624 13.6296 0
          CHANNELS 3 Zrotation Xrotation Yrotation
          End Site
          {
            OFFSET 8.38147 0 0
          }
        }
      }
    }
  }
}
MOTION
Frames:	11
Frame Time:	0.0333333
-61.5207 88.3084 70.7713 91.8347 -10.3876 0.219866 1.54006 -0.482548 -0.166263 3.07891 -0.968868 -0.31937 3.07889 -0.968847 -0.319379 -8.71452 -2.76078 -12.1563 57.1323 -3.27531 15.1683 -173.022 -3.03951 -95.1956 0.614576 -4.26511 79.8072 -21.4866 2.2538 -13.9207 19.4131 -85.9921 21.5641 -173.5 -5.65023 73.0581 5.58871 -6.98168 -81.6566 -28.1037 -4.0063 16.819 2.50899 81.1053 -2.32396 -5.88185 -0.501313 -176.781 -20.2534 0.931531 -1.27798 3.35669 5.09564 0.893608 90 -7.95139e-015 -3.18055e-015 -18.1887 2.13909 170.619 -36.7011 -0.345089 0.323062 5.35299 -1.98362 -1.04754 90 1.19271e-014 7.95139e-015 
-61.7373 88.3366 69.9905 91.797 -9.94433 0.0717453 1.51282 -0.489574 -0.0871279 3.02508 -0.980796 -0.16116 3.02508 -0.980815 -0.16117 -8.67925 -2.76733 -12.3262 57.8651 -3.59862 14.974 -173.079 -3.05309 -95.3793 -0.176254 -4.04189 80.1231 -21.9395 2.33804 -14.1864 20.762 -86.185 22.93 -173.542 -5.62974 72.8788 6.33693 -7.46406 -81.3956 -27.0965 -3.7557 16.298 3.35866 82.4794 -3.16426 -5.17111 -1.20044 -176.216 -19.3847 0.922362 -1.32062 2.98596 4.92299 0.889328 90 9.54166e-015 9.54166e-015 -17.9746 1.21088 168.736 -35.3995 -0.315177 0.378859 3.57728 0.354151 -0.672956 90 3.18055e-015 4.77083e-015 
-62.0147 88.3577 69.1387 91.5778 -9.70776 0.415758 1.50778 -0.462689 -0.10278 3.01942 -0.927431 -0.193195 3.01941 -0.927464 -0.193198 -8.54033 -2.66633 -12.2586 58.1345 -3.48079 14.8192 -173.195 -2.91222 -95.3406 -1.19578 -3.81651 80.2989 -22.1944 2.38239 -14.3384 24.9169 -86.8227 27.1184 -173.641 -5.45523 72.9035 8.05939 -7.4432 -80.9781 -26.2489 -3.54271 15.8367 3.26477 82.0934 -3.06764 -3.90535 -0.895128 -175.977 -17.7905 0.919059 -1.34373 2.48935 5.64249 0.944304 90 -2.38542e-015 -6.36111e-015 -17.3312 1.26521 166.548 -34.8567 -0.252687 0.421481 0.97337 3.50005 0.106038 90 1.27222e-014 -3.18055e-015 
-62.2539 88.3308 68.17 91.3294 -9.396 0.588838 1.493 -0.475343 -0.045927 2.9858 -0.951228 -0.0793099 2.98579 -0.951252 -0.0793164 -8.49625 -2.65949 -12.325 58.0989 -3.62628 14.6396 -173.243 -2.9054 -95.413 -1.15127 -3.79632 80.791 -22.3418 2.41363 -14.4396 23.5484 -86.7884 25.714 -173.681 -5.42446 72.817 9.12934 -7.69586 -80.5478 -25.7159 -3.4061 15.5404 3.16447 82.2155 -2.97135 -2.73468 -1.1878 -175.576 -16.4754 0.910563 -1.38167 2.19637 5.5325 0.919445 90 8.74653e-015 9.54166e-015 -16.6057 1.2514 164.674 -34.4119 -0.163432 0.410489 -4.27161 5.47373 1.31623 90 7.15625e-015 9.54166e-015 
-62.5396 88.3697 66.9991 91.041 -9.26186 0.774153 1.44419 -0.392474 -0.0506199 2.88817 -0.785551 -0.0911859 2.88816 -0.785553 -0.0911988 -8.24264 -2.65284 -12.1758 58.0374 -3.58458 14.5722 -173.491 -2.83204 -95.2876 -0.910287 -3.56283 81.0992 -22.4974 2.44659 -14.5253 21.8997 -86.5031 24.0423 -173.907 -5.31347 72.9369 10.6298 -7.87338 -80.5634 -25.2055 -3.28328 15.2597 3.0952 81.9172 -2.8854 -1.32121 -1.22 -175.049 -14.8821 0.89957 -1.40833 1.77673 5.69281 0.920832 90 5.56597e-015 3.18055e-015 -15.1693 2.62121 163.247 -34.0421 -0.0902978 0.405209 -7.22954 6.58274 2.15774 90 2.06736e-014 1.27222e-014 
-62.7954 88.2563 65.6759 90.824 -9.12101 0.881824 1.38845 -0.403715 0.0152076 2.77711 -0.806461 0.0403456 2.7771 -0.806433 0.040336 -8.18469 -2.62418 -12.4721 57.6255 -3.3701 14.6908 -173.57 -2.85553 -95.5929 -0.465362 -3.29355 81.4653 -22.6164 2.47249 -14.5858 22.6566 -86.6369 24.8275 -173.978 -5.2887 72.6325 11.4306 -7.92781 -80.3353 -24.986 -3.23198 15.1373 2.96329 81.4132 -2.74862 -0.226301 -2.2989 -174.397 -13.9608 0.883324 -1.44742 1.37856 5.04182 0.839583 90 2.06736e-014 1.90833e-014 -13.5105 3.76801 162.206 -33.6906 -0.0657778 0.406029 -7.88181 6.64603 2.32138 90 2.38542e-014 2.22639e-014 
-62.985 88.0047 64.1383 90.7376 -8.91337 1.11917 1.28759 -0.42296 0.0195908 2.57554 -0.844821 0.0571404 2.57553 -0.844842 0.057136 -8.21539 -2.50307 -12.127 57.6302 -3.43175 14.2098 -173.517 -2.71201 -95.2621 0.0362386 -2.79568 81.6368 -22.656 2.48045 -14.5862 21.9505 -86.5158 24.1352 -173.902 -5.08303 72.969 11.8045 -8.21109 -80.3683 -25.0572 -3.24515 15.1684 2.9054 81.5532 -2.68733 0.212257 -2.50313 -173.702 -13.872 0.8771 -1.44968 1.61204 4.60615 0.776311 90 4.77083e-015 6.36111e-015 -11.9921 4.64598 161.372 -33.01 -0.062784 0.412056 -9.69736 4.46179 1.90266 90 3.33958e-014 2.8625e-014 
-63.1161 87.7052 62.4419 90.6514 -8.8147 1.4253 1.20409 -0.45468 0.0141055 2.40843 -0.908418 0.0379263 2.40842 -0.90841 0.0379125 -8.19096 -2.5612 -12.0811 57.122 -3.6338 14.0649 -173.554 -2.77134 -95.1985 0.498567 -2.48028 81.3301 -22.3186 2.41428 -14.3686 21.095 -86.3009 23.279 -173.937 -5.10185 73.0228 11.8833 -8.17956 -80.5297 -25.146 -3.26898 15.2194 3.03704 81.7489 -2.82107 0.263248 -3.21385 -172.994 -14.6647 0.872649 -1.43921 1.8827 3.88801 0.703707 90 0 7.95139e-015 -9.90678 6.01322 160.973 -32.0646 -0.116425 0.458447 -6.96667 2.86582 1.03785 90 -7.95139e-015 -9.54166e-015 
-63.1185 87.3749 60.4245 90.6151 -8.57287 1.34385 1.15753 -0.529228 0.0577174 2.31573 -1.05652 0.126272 2.31573 -1.05655 0.126265 -8.60652 -2.44737 -12.4238 57.4771 -3.21826 14.36 -173.151 -2.82104 -95.5127 1.10248 -2.24858 81.0151 -22.097 2.36958 -14.2165 19.3999 -86.0041 21.5518 -173.542 -5.11677 72.6988 11.3145 -8.0183 -80.9701 -25.4095 -3.33434 15.3691 3.21558 82.1138 -3.00313 0.144539 -3.89889 -171.679 -15.5507 0.85441 -1.42682 1.95077 3.08281 0.64571 90 2.54444e-014 1.90833e-014 -8.41603 6.53015 161.581 -30.8846 -0.174958 0.491439 -4.15025 1.3525 0.32222 90 3.97569e-014 4.13472e-014 
-63.0304 87.1314 58.3245 90.5567 -8.43654 1.51671 1.09277 -0.565175 0.0415694 2.18613 -1.12894 0.09407 2.18613 -1.12893 0.0940649 -8.31866 -2.41822 -12.0883 56.5931 -3.3157 13.9369 -173.413 -2.68667 -95.2049 0.939023 -1.79871 80.3953 -21.7925 2.30377 -14.0136 19.2204 -85.9684 21.3667 -173.796 -4.96741 73.013 11.1461 -7.80944 -81.4158 -25.7201 -3.40704 15.5362 3.02507 81.9226 -2.8173 0.234556 -5.09759 -170.618 -16.2178 0.83989 -1.42339 1.54209 2.08945 0.540368 90 4.77083e-015 -7.95139e-015 -7.64937 5.76009 162.218 -30.2418 -0.208358 0.504472 -1.03374 0.492054 -0.138658 90 -9.54166e-015 -4.77083e-015 
-62.7421 87.0334 55.8931 90.6618 -8.62869 0.96099 1.05384 -0.539837 0.156331 2.10931 -1.07603 0.322732 2.1093 -1.07604 0.322722 -8.5394 -2.40443 -12.4373 56.8067 -2.99543 14.3857 -173.227 -2.79015 -95.553 0.865832 -1.42428 79.8513 -21.7581 2.28891 -13.9636 17.4077 -85.589 19.5571 -173.615 -5.06395 72.6871 9.83254 -7.60984 -81.99 -26.037 -3.48975 15.7261 3.46701 82.7129 -3.26297 0.100193 -6.19262 -168.651 -17.0612 0.799133 -1.41757 0.515847 0.853926 0.364726 90 1.59028e-015 1.59028e-014 -8.01423 3.99745 164.318 -30.1049 -0.256877 0.501823 1.51718 1.01723 -0.233006 90 1.11319e-014 1.90833e-014 
